<svg xmlns="http://www.w3.org/2000/svg" width="60" height="1060" viewBox="-12.625 -234.667 60 1060"><path stroke="#000" stroke-miterlimit="10" d="M6.162 46.57h21.567a3.921 3.921 0 0 0 3.925-3.924V19.122a3.92 3.92 0 0 0-3.925-3.925H6.162a3.918 3.918 0 0 0-3.919 3.925V42.65a3.918 3.918 0 0 0 3.919 3.92zm2.943-4.9a1.956 1.956 0 0 1-1.957-1.959 1.96 1.96 0 1 1 1.957 1.959zm0-6.863a1.957 1.957 0 0 1-1.957-1.959c0-1.081.875-1.958 1.957-1.958a1.96 1.96 0 0 1 1.961 1.958 1.96 1.96 0 0 1-1.961 1.959zm7.842 6.863a1.956 1.956 0 0 1-1.958-1.959 1.957 1.957 0 1 1 3.915 0 1.958 1.958 0 0 1-1.957 1.959zm0-6.863a1.957 1.957 0 0 1-1.958-1.959 1.957 1.957 0 1 1 3.915 0 1.96 1.96 0 0 1-1.957 1.959zm7.844 6.863a1.957 1.957 0 0 1-1.956-1.959 1.957 1.957 0 1 1 1.956 1.959zm0-6.863a1.958 1.958 0 1 1 .003-3.915 1.958 1.958 0 0 1-.003 3.915zM6.162 21.082c0-.542.442-.98.983-.98h19.604a.98.98 0 0 1 .982.98v4.899a.981.981 0 0 1-.982.983H7.145a.982.982 0 0 1-.983-.983v-4.899zM12.2-25.663l-7.672 2.021s.761-3.78 5.886-5.124a10.888 10.888 0 0 1 1.974-.327c.183-1.641.467-3.108.774-4.235l.01-.037c-1.681-.254-2.653-1.695-2.653-1.695l3.412-.898c.47-1.477.933-2.669 1.394-3.391.943-1.485 3.092-1.603 4.697-.914-.655-2.245-1.315-3.877-1.841-4.924-.671-1.333-1.356-.449-2.912.823-1.097.896-3.867 2.809-8.042 3.906-4.169 1.098-7.548.808-8.952.568-1.997-.336-3.037-.767-2.939.718.087 1.307.405 3.34 1.137 6.019 1.585 5.803 6.809 16.988 16.668 14.402-.69-2.221-.943-4.625-.941-6.912zM.324-32.377l6.799-1.792s-.167 2.73-2.712 3.4c-2.553.674-4.087-1.608-4.087-1.608z"/><path stroke="#000" stroke-miterlimit="10" d="M36.786-33.399c-1.411.239-4.781.532-8.95-.565-4.172-1.099-6.951-3.01-8.044-3.908-1.562-1.273-2.246-2.158-2.913-.825-.592 1.177-1.348 3.093-2.08 5.777-1.584 5.803-2.754 18.064 7.107 20.661 9.869 2.598 15.097-8.594 16.684-14.399.729-2.683 1.049-4.712 1.137-6.02.096-1.487-.945-1.058-2.941-.721zm-19.504 4.711s1.536-2.282 4.084-1.611c2.551.671 2.717 3.399 2.717 3.399l-6.801-1.788zm6.224 10.581c-5.127-1.349-5.887-5.127-5.887-5.127l13.595 3.581c-.003-.001-2.637 2.882-7.708 1.546zm3.973-7.898s1.533-2.28 4.087-1.607c2.543.67 2.714 3.396 2.714 3.396l-6.801-1.789zM-.298-134.44h33.702c1.306 0 2.375-1.052 2.375-2.348 0-1.3-1.066-2.354-2.375-2.354h-.648c0-6.237-3.615-11.639-8.884-14.284l-1.342 7.525a1.245 1.245 0 0 1-1.444.996 1.227 1.227 0 0 1-1.001-1.427l1.525-8.588a3.235 3.235 0 0 0-2.76-1.517h-4.6a3.262 3.262 0 0 0-2.761 1.517l1.532 8.588a1.236 1.236 0 0 1-1.225 1.446c-.593 0-1.115-.42-1.219-1.015l-1.345-7.522c-5.266 2.643-8.88 8.046-8.88 14.283h-.65a2.364 2.364 0 0 0-2.374 2.354c-.002 1.292 1.061 2.346 2.374 2.346zM32.707-89.213c-2.089-8.257-10.534-13.192-18.788-11.104C5.664-98.229.731-89.786 2.818-81.527c1.044 3.89 3.418 7.114 6.547 9.109l-4.082 6.166L21.6-70.425c8.261-2.09 13.195-10.533 11.107-18.788zM17.809-93.77c1.896 0 3.508 1.615 3.508 3.511 0 1.897-1.612 3.511-3.508 3.511-1.899 0-3.511-1.613-3.511-3.511.001-1.991 1.517-3.511 3.511-3.511zm6.259 14.52H11.45v-2.847c0-1.708 1.426-3.037 3.038-3.037h6.452c1.706 0 3.035 1.329 3.035 3.037v2.847h.093zM31.508 135.354c-2.026-1.988-4.713-3.12-7.56-3.12-2.453 0-4.872.819-6.78 2.377-4.636-3.738-11.418-3.038-15.158 1.598-2.766 3.427-3.156 8.26-.976 12.081h5.223l5.414-9.391 3.548 10.757 3.974-7.052 3.354 5.726h3.199c.663 0 1.166.508 1.166 1.167 0 .663-.503 1.17-1.166 1.17h-4.524l-1.988-3.35-4.597 8.064-3.586-10.792-3.468 6.037H2.829l14.34 14.342 14.42-14.419c4.169-4.208 4.129-11.025-.081-15.195z"/><g stroke="#000" stroke-miterlimit="10"><path stroke-width=".5" d="M18.01 477.718c-3.723 0-6.752 3.032-6.752 6.756v4.918c-.009.478.423.917.9.917s.909-.439.901-.917v-4.918a4.926 4.926 0 0 1 4.955-4.956 4.92 4.92 0 0 1 4.954 4.956v4.918c-.006.478.422.917.902.917.477 0 .906-.439.9-.917v-4.918c-.007-3.724-3.035-6.756-6.76-6.756z"/><path d="M29.265 486.507H6.759l-2.25 24.528h27.01l-2.254-24.528zm-16.756 7.482a1.447 1.447 0 1 1 0-2.896 1.447 1.447 0 1 1 0 2.896zm11.183 0a1.448 1.448 0 1 1 0-2.896 1.447 1.447 0 1 1 0 2.896z"/></g><path stroke="#000" stroke-miterlimit="10" d="M18.259 537.654l16.222 14.513h-4.692v17.074H6.735v-17.074H2.041l16.218-14.513zm5.975 15.366h-5.122v5.119h5.122v-5.12zm-6.83 0h-5.119v5.119h5.119v-5.12zm6.83 6.83h-5.122v5.123h5.122v-5.122zm-6.83 0h-5.119v5.123h5.119v-5.122zM34.243 787.41a15.08 15.08 0 0 0-13.756-13.731c-11.326-.895-20.306 10.86-14.314 22.614a12.525 12.525 0 0 0 5.444 5.441c11.761 6.019 23.537-2.987 22.626-14.324zm-22.349 6.867c0-.47.124-2.654.124-4.046 0-1.388-2.668-.583-2.668-2.462 0-1.671 1.333-2.243 1.042-3.045-.29-.8-2.128-.586-3.068-.669a12.843 12.843 0 0 1 10.2-8.092 8.01 8.01 0 0 1-1.415 1.919c-1.067.963-.963 1.157-1.538 2.086-.578.932-2.043 1.411-2.043 2.091 0 .674-.223 1.363.253 1.212.479-.155 1.943-1.467 2.674-1.212.728.257 6.195-.307 4.506 4.247-.549 1.446-2.431 2.902-3.068 5.299-.094.352-.315 2.392-.333 2.879-.039.763-.373 3.541-1.1 3.541-.738 0-3.566-3.282-3.566-3.748zm7.379 7.176a12.753 12.753 0 0 1-4.008-.655c.772-.403 1.073-1.947 1.776-1.974.796-.036 2.003-.846 2.919-1.043.797-.172 1.001 1.439 2.251 1.335 1.066-.081 3.576-.814 4.145.208a12.72 12.72 0 0 1-7.083 2.129zm10.629-5.674a.809.809 0 0 1-1.111.255 1.017 1.017 0 0 1-.104-.072c-.188-.19-.263-.463-.036-.974.479-1.032.111-3.697 0-4.633-.112-.926-.231-2.606-1.541-2.623-1.313-.025-1.81-1.671-2.591-3.222-1.616-3.234 3.032-3.856 1.418-5.647-.448-.494-2.783 2.068-3.129-1.36.056-.379.232-.731.501-1.005 6.7 2.248 10.322 9.483 8.081 16.185a12.86 12.86 0 0 1-1.52 3.089l.032.007z"/><g stroke="#000" stroke-miterlimit="10"><path d="M18.297 598.611c1.745.008 3.49.218 5.182.625a21.455 21.455 0 0 1 11.326 7.028 1.527 1.527 0 0 1-.152 2.152 1.512 1.512 0 0 1-1.565.261 1.898 1.898 0 0 1-.771-.628 18.48 18.48 0 0 0-6.549-4.84 17.897 17.897 0 0 0-4.328-1.294 18.356 18.356 0 0 0-14.442 3.693 19.88 19.88 0 0 0-2.724 2.648 1.445 1.445 0 0 1-1.584.472 1.427 1.427 0 0 1-1.075-1.215c-.08-.466.063-.932.381-1.276a21.461 21.461 0 0 1 12.867-7.323 21.825 21.825 0 0 1 3.434-.303z"/><path d="M18.714 605.992c2.738.049 5.41.846 7.726 2.303a15.281 15.281 0 0 1 3.66 3.139 1.543 1.543 0 0 1-.152 2.165 1.54 1.54 0 0 1-2.17-.15 14.041 14.041 0 0 0-2.018-1.911 12.014 12.014 0 0 0-3.859-1.965 12.22 12.22 0 0 0-10.551 1.674 12.88 12.88 0 0 0-2.386 2.202 1.52 1.52 0 0 1-2.151.129 1.518 1.518 0 0 1-.168-2.109 15.368 15.368 0 0 1 7.49-4.867 16.142 16.142 0 0 1 4.579-.61z"/><path d="M18.753 613.366a8.957 8.957 0 0 1 6.655 3.275c.546.64.464 1.603-.183 2.148a1.52 1.52 0 0 1-2.148-.18 6.391 6.391 0 0 0-2.195-1.681 6.126 6.126 0 0 0-7.207 1.666 1.549 1.549 0 0 1-1.702.46 1.534 1.534 0 0 1-1.007-1.471 1.5 1.5 0 0 1 .371-.954 9.167 9.167 0 0 1 4.077-2.777 10.235 10.235 0 0 1 3.339-.486zM18.379 626.839a3.055 3.055 0 0 1-3.048-3.058 3.062 3.062 0 0 1 3.063-3.056 3.06 3.06 0 0 1 3.048 3.065v.027a3.038 3.038 0 0 1-3.063 3.022z"/></g><path stroke="#000" stroke-miterlimit="10" d="M19.561 363.455L3.345 377.967h4.692v17.074h23.05v-17.074h4.691l-16.217-14.512zm-1.433 16.787h2.296a3.445 3.445 0 0 1 3.441 3.442 3.447 3.447 0 0 1-3.441 3.441v2.292h-2.296v-2.292a3.443 3.443 0 0 1-3.441-3.441h2.293c0 .631.515 1.146 1.147 1.146h2.291c.636 0 1.147-.515 1.147-1.146h.003c0-.632-.512-1.145-1.146-1.145h-2.296a3.445 3.445 0 0 1 0-6.888v-2.293h2.296v2.293a3.446 3.446 0 0 1 3.441 3.445h-2.296c0-.632-.512-1.143-1.146-1.143h-2.296c-.633 0-1.147.511-1.147 1.143a1.152 1.152 0 0 0 1.15 1.146z"/><g stroke="#000" stroke-miterlimit="10"><path d="M20.141 675.859H-.508a.87.87 0 0 0-.87.866v2.654a.87.87 0 0 0 .87.867h1.954c.175 1.998 1.825 3.57 3.868 3.57a3.88 3.88 0 0 0 3.867-3.57h10.952c.48 0 .868-.391.868-.867v-2.654a.86.86 0 0 0-.86-.866zm-14.825 6.086a2.04 2.04 0 0 1-2.042-2.043 2.04 2.04 0 0 1 2.042-2.04c1.13 0 2.046.911 2.046 2.04-.001 1.128-.958 2.043-2.046 2.043zM38.442 672.249l-4.48-.608-2.563-4.474a3.907 3.907 0 0 0-3.391-1.958h-4.914a.87.87 0 0 0-.866.871v13.256c0 .48.393.869.866.869h6.224a3.881 3.881 0 1 0 7.738 0h1.173a1.74 1.74 0 0 0 1.732-1.736v-4.48c-.042-.866-.693-1.61-1.519-1.74zm-13.434-4.43c0-.089.09-.18.181-.18h2.777c.521 0 .997.308 1.266.742l1.652 2.91c.089.124 0 .257-.128.257h-5.562c-.088 0-.18-.088-.18-.174l-.006-3.555zm8.131 14.126a2.04 2.04 0 0 1-2.043-2.043c0-1.129.912-2.04 2.043-2.04a2.043 2.043 0 0 1 0 4.083zM-.508 674.64h20.649a.87.87 0 0 0 .868-.869v-12.859a.867.867 0 0 0-.868-.869H-.508a.868.868 0 0 0-.87.869v12.859c0 .479.392.869.87.869z"/></g><path stroke="#000" stroke-miterlimit="10" d="M13.205 310.289a2.276 2.276 0 0 1 1.95-1.122h5.697c.809 0 1.55.435 1.946 1.122l1.595 2.785h4.842a2.245 2.245 0 0 1 2.25 2.24v16.415a2.244 2.244 0 0 1-2.25 2.24H6.757c-1.233 0-2.235-1-2.235-2.24v-16.415c0-1.235.997-2.24 2.235-2.24h4.859l1.589-2.785zm8.727 13.069c0-2.18-1.76-3.932-3.934-3.932a3.92 3.92 0 0 0-3.927 3.932 3.932 3.932 0 0 0 3.927 3.927 3.94 3.94 0 0 0 3.934-3.927zm2.865 0a6.791 6.791 0 0 0-6.799-6.805 6.807 6.807 0 0 0-6.808 6.805c0 3.753 3.056 6.81 6.808 6.81a6.808 6.808 0 0 0 6.799-6.81zm.624-4.937h3.136v-2.784h-3.136v2.784z"/><g stroke="#000" stroke-miterlimit="10"><path d="M29.005-195.295H2.491c-.194.525-.817.977-1.095 1.16v2.588h28.721V-194.129c-.289-.181-.932-.629-1.112-1.166zM14.947-213.401h1.618v2.429h-1.618z"/><path d="M17.979-212.593h-4.446a.81.81 0 0 1 0-1.62h4.446c.445 0 .806.362.806.81 0 .448-.36.81-.806.81zM29.371-197.891c-.334-.17-.709-.489-.742-.631-.709-4.956-2.82-11.552-12.871-11.552-10.055 0-12.165 6.596-12.873 11.561-.035.138-.414.463-.746.626a.777.777 0 0 0-.428.885c.087.367.412.599.791.599h26.512c.377 0 .699-.233.785-.599a.776.776 0 0 0-.428-.889zm-18.138-7.742a13.542 13.542 0 0 0-3.039 2.148.798.798 0 0 1-.553.221.794.794 0 0 1-.587-.253.806.806 0 0 1 .03-1.146 15.246 15.246 0 0 1 3.401-2.406.81.81 0 0 1 .748 1.436z"/></g><g stroke="#000" stroke-miterlimit="10"><path d="M13.033 87.655l.519-.277 1.068 2.142 1.829-2.692-3.591-5.423-5.493-8.402c-.241-.38-.794-.514-1.174-.272-1.177.695-1.658 2.104-1.177 3.351L8.99 86.241c.587 1.623 2.522 2.282 4.043 1.414zM19.736 91.802l-1.971 4.042 4.08 8.223c.624 1.243 2.144 1.73 3.352 1.039l.209-.137c1.21-.699 1.587-2.282.793-3.426l-6.463-9.741z"/><path d="M29.205 75.564c-.341-.315-.859-.21-1.108.174 0 0-3.11 5.149-4.003 6.6a.507.507 0 0 1-.625.175c-.211-.138-.314-.416-.178-.624.829-1.522 3.699-6.773 3.699-6.773.204-.382.035-.863-.411-1.036a.73.73 0 0 0-.833.311l-4.009 6.598a.501.501 0 0 1-.624.175c-.204-.138-.314-.413-.179-.624l3.703-6.773c.205-.38.036-.861-.412-1.034a.722.722 0 0 0-.83.31l-4.251 6.98-.518.928c-.555.936-.728 2.041-.482 2.906l.518 1.87L7.986 101.52c-.761 1.174-.414 2.728.793 3.423l.207.132c1.211.693 2.763.245 3.351-1.036l8.324-17.133 1.87-.486c.898-.243 1.731-.932 2.281-1.865l.517-.933 3.907-7.159c.281-.316.243-.694-.031-.899z"/></g><path stroke="#000" stroke-miterlimit="10" d="M31.525 196.901c0-.594-.259-1.163-.701-1.557a2.098 2.098 0 0 0-1.648-.499c-3.813.476-7.458-.8-10.157-3.392a2.038 2.038 0 0 0-1.416-.568 2.009 2.009 0 0 0-1.42.567c-2.697 2.589-6.349 3.867-10.157 3.394a2.112 2.112 0 0 0-1.65.499c-.446.392-.7.963-.7 1.56l.011 12.64c0 4.136 2.412 7.958 6.149 9.73l7.488 3.564a.668.668 0 0 0 .599 0l7.476-3.559a10.83 10.83 0 0 0 6.144-9.728l-.018-12.651zm-7.444 11.853l-5.974 5.976a.715.715 0 0 1-.493.205.706.706 0 0 1-.494-.205l-5.977-5.976a4.517 4.517 0 0 1-1.33-3.205 4.51 4.51 0 0 1 1.33-3.209 4.517 4.517 0 0 1 3.205-1.325 4.52 4.52 0 0 1 3.208 1.325l.049.047.049-.047a4.548 4.548 0 0 1 6.421 0 4.502 4.502 0 0 1 1.331 3.209 4.475 4.475 0 0 1-1.325 3.205z"/><g stroke="#000" stroke-miterlimit="10"><path d="M14.161 249.094c.522.257.819.593 1.375.63 1.191.111 1.117-1.268 2.38-1.564 1.047-.258 1.601.596 2.907.483 1.34-.073 2.605-1.077 2.306-2.044-.443-1.487-4.873-3.72-6.844-2.606-1.375.779-.52 2.606-2.01 3.311-1.49.67-2.902-.818-4.465-.148-1.595.707-1.821 3.126-1.337 3.535.667.67 2.974-2.938 5.688-1.597zM24.466 263.939v4.577l-6.584-4.577v4.577l-5.919-4.091-1.3-12.613H6.646l-2.564 24.813c-.037.41.258.747.631.747h26.715v-8.559l-6.962-4.874z"/></g><path stroke="#000" stroke-miterlimit="10" d="M14.038 438.116l-1.449-1.446c-.887-.888-2.339-1.011-3.385-.245l-6.692 4.916c-1.251.929-1.371 2.782-.284 3.87l8.909 8.907c1.127 1.131 2.939.97 3.908-.28l4.919-6.69c.767-1.009.646-2.465-.242-3.387l-1.577-1.577 1.449-1.451 2.983-.438.446-2.984 2.982-.441.443-2.984 2.984-.442.445-2.982 1.651-1.657v-4.07h-4.07l-13.42 13.381zm-1.172 8.262c.2.198.2.482.039.686l-1.45 1.854c-.199.245-.562.282-.766.039l-3.227-3.227c-.238-.24-.196-.604.04-.764l1.857-1.448c.199-.162.523-.162.683.037l2.824 2.823zM33.582 732.335c0-.406-.237-.752-.575-.922l-6.419-2.954v-7.705c0-.404-.237-.75-.577-.919l-7.031-3.259a.936.936 0 0 0-.847 0l-7.06 3.259c-.375.169-.58.546-.58.919v7.68l-6.416 2.982a1.01 1.01 0 0 0-.578.922v8.379c0 .411.238.756.578.922l7.031 3.259a.92.92 0 0 0 .88 0l6.549-3.021 6.556 3.021a.924.924 0 0 0 .88 0l7.032-3.259c.374-.169.577-.549.577-.922v-8.382zm-21.017 3.868l4.958-2.238v6.145l-4.958 2.275v-6.182zm6.996-11.577l4.99-2.274v6.145l-4.99 2.316v-6.187zm5.974 9.812l-4.515-2.071 4.611-2.137 4.52 2.098-4.616 2.11zm-6.993-15.821l4.582 2.141-4.582 2.103-4.587-2.103 4.587-2.141zm-7.097 11.613l4.619 2.137-4.519 2.074-4.584-2.099 4.484-2.112zm15.113 12.154v-6.182l4.989-2.275v6.15l-4.989 2.307z"/></svg>