<svg xmlns="http://www.w3.org/2000/svg" width="34.75" height="590.665" viewBox="0 0 34.75 590.665"><path fill="#47B475" d="M11.148 154.324H23.35c1.227 0 2.22-.993 2.22-2.22v-13.31a2.219 2.219 0 0 0-2.22-2.221H11.148a2.218 2.218 0 0 0-2.218 2.221v13.312c0 1.225.993 2.218 2.218 2.218zm1.665-2.772a1.107 1.107 0 0 1-1.107-1.109 1.109 1.109 0 1 1 1.107 1.109zm0-3.883a1.107 1.107 0 0 1-1.107-1.109 1.11 1.11 0 1 1 1.107 1.109zm4.437 3.883a1.107 1.107 0 1 1-.001-2.215 1.107 1.107 0 0 1 .001 2.215zm0-3.883a1.107 1.107 0 1 1-.001-2.215 1.107 1.107 0 0 1 .001 2.215zm4.438 3.883a1.108 1.108 0 1 1 0-2.216 1.108 1.108 0 0 1 0 2.216zm0-3.883a1.108 1.108 0 1 1 0-2.216 1.108 1.108 0 0 1 0 2.216zm-10.54-7.766c0-.307.25-.555.556-.555h11.092c.308 0 .555.248.555.555v2.772a.554.554 0 0 1-.555.556H11.704a.555.555 0 0 1-.556-.556v-2.772zM14.564 113.456l-4.341 1.143s.431-2.138 3.33-2.899a6.17 6.17 0 0 1 1.117-.185 16.25 16.25 0 0 1 .438-2.396l.006-.021c-.951-.144-1.501-.959-1.501-.959l1.93-.508c.266-.836.528-1.511.788-1.919.534-.84 1.749-.907 2.657-.517-.37-1.27-.743-2.194-1.04-2.786-.38-.754-.768-.254-1.648.466-.621.507-2.188 1.589-4.55 2.21-2.359.621-4.271.457-5.065.321-1.13-.19-1.718-.434-1.663.406.049.74.229 1.89.643 3.406.897 3.283 3.852 9.611 9.43 8.148-.389-1.256-.532-2.616-.531-3.91zm-6.719-3.799l3.847-1.014s-.095 1.545-1.535 1.924c-1.444.381-2.312-.91-2.312-.91z"/><path fill="#47B475" d="M28.474 109.079c-.798.135-2.705.301-5.065-.32-2.359-.622-3.93-1.703-4.55-2.211-.883-.721-1.27-1.221-1.648-.467-.335.666-.763 1.75-1.177 3.268-.896 3.284-1.558 10.221 4.023 11.69 5.583 1.47 8.54-4.862 9.438-8.147.413-1.518.594-2.666.644-3.406.055-.84-.535-.598-1.665-.407zm-11.034 2.665s.868-1.291 2.31-.911c1.444.38 1.537 1.923 1.537 1.923l-3.847-1.012zm3.521 5.987c-2.9-.763-3.331-2.901-3.331-2.901l7.692 2.026c-.001 0-1.492 1.631-4.361.875zm2.248-4.469s.867-1.29 2.313-.909c1.438.379 1.534 1.922 1.534 1.922l-3.847-1.013zM7.493 51.912H26.56c.74 0 1.344-.595 1.344-1.328 0-.736-.602-1.332-1.344-1.332h-.366c0-3.529-2.046-6.585-5.027-8.082l-.759 4.258a.704.704 0 0 1-.816.563.695.695 0 0 1-.567-.807l.864-4.859a1.834 1.834 0 0 0-1.562-.858h-2.603c-.658 0-1.235.342-1.562.858l.867 4.859a.7.7 0 0 1-.693.818.698.698 0 0 1-.69-.574l-.761-4.256c-2.979 1.495-5.024 4.552-5.024 8.081h-.368c-.741 0-1.343.595-1.343 1.332-.001.731.6 1.327 1.343 1.327zM26.167 77.501c-1.182-4.672-5.96-7.464-10.63-6.282-4.671 1.181-7.462 5.958-6.281 10.63.591 2.201 1.934 4.025 3.704 5.154l-2.309 3.488 9.232-2.361c4.673-1.182 7.465-5.959 6.284-10.629zm-8.429-2.578c1.072 0 1.985.913 1.985 1.986 0 1.074-.913 1.986-1.985 1.986-1.075 0-1.987-.912-1.987-1.986.001-1.127.859-1.986 1.987-1.986zm3.542 8.214h-7.14v-1.61c0-.967.807-1.719 1.719-1.719h3.65c.966 0 1.717.752 1.717 1.719v1.61h.054zM25.489 204.556a6.093 6.093 0 0 0-4.278-1.765 6.077 6.077 0 0 0-3.836 1.345c-2.623-2.115-6.46-1.719-8.576.904a6.109 6.109 0 0 0-.552 6.835h2.955l3.063-5.313 2.008 6.086 2.248-3.99 1.896 3.24h1.81c.375 0 .66.287.66.66a.649.649 0 0 1-.66.662h-2.559l-1.125-1.896-2.601 4.563-2.029-6.106-1.962 3.415h-2.69l8.114 8.115 8.158-8.158c2.36-2.381 2.337-6.238-.044-8.597z"/><g fill="#47B475"><path stroke="#47B475" stroke-width=".5" stroke-miterlimit="10" d="M17.851 398.259a3.825 3.825 0 0 0-3.82 3.821v2.784c-.005.27.239.518.509.518s.514-.248.51-.518v-2.784a2.785 2.785 0 0 1 2.803-2.802 2.783 2.783 0 0 1 2.803 2.802v2.784a.53.53 0 0 0 .51.518.53.53 0 0 0 .51-.518v-2.784a3.83 3.83 0 0 0-3.825-3.821z"/><path d="M24.219 403.231H11.486l-1.273 13.877h15.282l-1.276-13.877zm-9.48 4.233a.82.82 0 1 1 0-1.64.82.82 0 0 1 0 1.64zm6.328 0a.82.82 0 1 1-.002-1.64.82.82 0 0 1 .002 1.64z"/></g><path fill="#47B475" d="M17.992 432.169l9.178 8.21h-2.655v9.66H11.472v-9.66H8.816l9.176-8.21zm3.381 8.694h-2.898v2.896h2.898v-2.896zm-3.864 0h-2.896v2.896h2.896v-2.896zm3.864 3.865h-2.898v2.897h2.898v-2.897zm-3.864 0h-2.896v2.897h2.896v-2.897zM27.035 573.475a8.532 8.532 0 0 0-7.782-7.769c-6.408-.507-11.489 6.145-8.098 12.795a7.09 7.09 0 0 0 3.08 3.078c6.654 3.405 13.316-1.69 12.8-8.104zm-12.644 3.885c0-.265.07-1.502.07-2.289 0-.786-1.51-.33-1.51-1.393 0-.945.754-1.27.59-1.723s-1.204-.332-1.736-.379a7.268 7.268 0 0 1 5.771-4.577c-.21.398-.48.765-.8 1.085-.604.546-.545.654-.87 1.181-.327.527-1.156.799-1.156 1.182 0 .382-.126.772.143.686.271-.087 1.099-.83 1.513-.686.412.146 3.505-.173 2.549 2.403-.311.818-1.375 1.643-1.736 2.999-.053.198-.178 1.352-.188 1.629-.022.431-.211 2.003-.623 2.003-.417 0-2.017-1.858-2.017-2.121zm4.176 4.061a7.217 7.217 0 0 1-2.267-.371c.437-.229.607-1.102 1.004-1.117.451-.021 1.135-.479 1.652-.59.451-.099.568.813 1.275.756.602-.047 2.023-.461 2.343.117a7.2 7.2 0 0 1-4.007 1.205zm6.013-3.212a.456.456 0 0 1-.687.104c-.107-.107-.149-.262-.02-.551.269-.583.062-2.092 0-2.62-.063-.525-.131-1.475-.872-1.485-.742-.013-1.024-.945-1.466-1.823-.914-1.829 1.716-2.181.803-3.194-.254-.282-1.577 1.17-1.771-.771.031-.214.131-.413.283-.567a7.237 7.237 0 0 1 3.712 10.904l.018.003z"/><g fill="#47B475" stroke="#47B475" stroke-miterlimit="10"><path d="M18.013 466.657a12.64 12.64 0 0 1 2.933.354 12.086 12.086 0 0 1 4.508 2.161 12.03 12.03 0 0 1 1.9 1.813.864.864 0 0 1-.972 1.367 1.11 1.11 0 0 1-.437-.358 10.432 10.432 0 0 0-6.154-3.47 10.382 10.382 0 0 0-8.171 2.09c-.562.449-1.075.951-1.541 1.498a.818.818 0 0 1-.896.267.808.808 0 0 1-.608-.688.85.85 0 0 1 .216-.722 12.144 12.144 0 0 1 7.28-4.143 12.39 12.39 0 0 1 1.942-.169z"/><path d="M18.25 470.833a8.484 8.484 0 0 1 4.37 1.303 8.626 8.626 0 0 1 2.071 1.774.87.87 0 0 1-1.312 1.141 7.788 7.788 0 0 0-1.141-1.082 6.887 6.887 0 0 0-2.183-1.113 6.911 6.911 0 0 0-5.97.949 7.22 7.22 0 0 0-1.35 1.246.863.863 0 0 1-1.312-1.121 8.659 8.659 0 0 1 4.237-2.754 9.138 9.138 0 0 1 2.59-.343z"/><path d="M18.271 475.004a5.07 5.07 0 0 1 3.766 1.854.86.86 0 0 1-.104 1.215.859.859 0 0 1-1.214-.102 3.578 3.578 0 0 0-1.243-.95 3.463 3.463 0 0 0-4.076.942.878.878 0 0 1-.963.261.868.868 0 0 1-.57-.832.848.848 0 0 1 .21-.539 5.194 5.194 0 0 1 2.307-1.573 5.785 5.785 0 0 1 1.887-.276zM18.061 482.628a1.73 1.73 0 1 1 1.732-1.725v.015a1.721 1.721 0 0 1-1.732 1.71z"/></g><path fill="#47B475" d="M18.729 333.61l-9.176 8.211h2.655v9.66H25.25v-9.66h2.655l-9.176-8.211zm-.811 9.498h1.299c1.074 0 1.947.873 1.947 1.947a1.95 1.95 0 0 1-1.947 1.947v1.298h-1.299v-1.298a1.947 1.947 0 0 1-1.947-1.947h1.298a.65.65 0 0 0 .649.649h1.297a.649.649 0 0 0 .649-.649h.001a.648.648 0 0 0-.648-.647h-1.299a1.949 1.949 0 0 1 0-3.897v-1.297h1.299v1.297a1.95 1.95 0 0 1 1.947 1.949h-1.299a.647.647 0 0 0-.648-.648h-1.299a.648.648 0 1 0 0 1.296z"/><g fill="#47B475"><path d="M19.057 510.362H7.374a.493.493 0 0 0-.492.491v1.502c0 .271.222.49.492.49H8.48a2.194 2.194 0 1 0 4.376 0h6.197a.492.492 0 0 0 .491-.49v-1.502a.487.487 0 0 0-.487-.491zm-8.387 3.444a1.155 1.155 0 1 1 0-2.312c.639 0 1.157.517 1.157 1.155a1.173 1.173 0 0 1-1.157 1.157zM29.411 508.319l-2.534-.344-1.45-2.532a2.214 2.214 0 0 0-1.918-1.107h-2.78a.492.492 0 0 0-.491.493v7.5c0 .271.221.492.491.492h3.519a2.198 2.198 0 0 0 2.188 2.018 2.197 2.197 0 0 0 2.19-2.018h.664c.54 0 .982-.443.982-.983v-2.534c-.025-.491-.394-.91-.861-.985zm-7.6-2.506c0-.05.051-.101.101-.101h1.573c.295 0 .564.174.714.42l.935 1.646c.05.072 0 .147-.073.147h-3.146c-.05 0-.101-.049-.101-.099l-.003-2.013zm4.6 7.993c-.642 0-1.156-.518-1.156-1.157s.517-1.155 1.156-1.155a1.156 1.156 0 1 1 0 2.312zM7.374 509.673h11.683a.492.492 0 0 0 .491-.492v-7.277a.491.491 0 0 0-.491-.492H7.374a.492.492 0 0 0-.492.492v7.277c0 .271.222.492.492.492z"/></g><path fill="#47B475" d="M15.133 303.53a1.285 1.285 0 0 1 1.103-.635h3.223c.457 0 .877.246 1.101.635l.903 1.576h2.739c.703 0 1.272.567 1.272 1.267v9.288c0 .699-.567 1.267-1.272 1.267H11.485a1.266 1.266 0 0 1-1.265-1.267v-9.287c0-.699.564-1.268 1.265-1.268h2.749l.899-1.576zm4.937 7.395a2.222 2.222 0 0 0-2.226-2.225 2.224 2.224 0 1 0 2.226 2.225zm1.621 0a3.841 3.841 0 0 0-3.847-3.85 3.85 3.85 0 0 0-3.851 3.85 3.858 3.858 0 0 0 3.851 3.852 3.85 3.85 0 0 0 3.847-3.852zm.354-2.793h1.773v-1.576h-1.773v1.576z"/><g fill="#47B475"><path d="M24.072 17.482H9.071c-.11.297-.462.552-.62.656v1.464h16.25v-1.461c-.163-.102-.527-.355-.629-.659zM16.118 7.238h.915v1.374h-.915z"/><path d="M17.834 7.695h-2.515a.458.458 0 0 1 0-.916h2.515c.252 0 .456.205.456.458a.457.457 0 0 1-.456.458zM24.28 16.013c-.189-.096-.402-.276-.421-.357-.401-2.804-1.596-6.536-7.282-6.536-5.689 0-6.882 3.732-7.283 6.541-.02.078-.234.262-.422.354-.19.093-.291.293-.242.501s.233.339.447.339h15a.443.443 0 0 0 .203-.842zm-10.263-4.38a7.66 7.66 0 0 0-1.719 1.215.455.455 0 0 1-.645-.018.456.456 0 0 1 .017-.648 8.623 8.623 0 0 1 1.924-1.361.459.459 0 0 1 .423.812z"/></g><g fill="#47B475"><path d="M15.035 177.569l.294-.157.604 1.212 1.035-1.523-2.032-3.069-3.108-4.753a.497.497 0 0 0-.664-.154 1.547 1.547 0 0 0-.666 1.896l2.25 5.748c.332.918 1.427 1.291 2.287.8zM18.828 179.915l-1.115 2.287 2.309 4.652a1.363 1.363 0 0 0 1.896.588l.118-.078a1.353 1.353 0 0 0 .449-1.937l-3.657-5.512z"/><path d="M24.185 170.728c-.194-.178-.487-.119-.626.098 0 0-1.76 2.913-2.266 3.734a.285.285 0 0 1-.353.099c-.119-.078-.178-.235-.1-.353l2.091-3.832c.118-.216.021-.488-.232-.586a.41.41 0 0 0-.47.176l-2.268 3.733a.283.283 0 0 1-.352.099c-.117-.078-.178-.234-.101-.353l2.095-3.832c.116-.215.019-.487-.234-.585a.408.408 0 0 0-.469.176l-2.406 3.949-.293.525c-.313.529-.411 1.154-.273 1.644l.293 1.058-6.04 8.935a1.365 1.365 0 0 0 .449 1.937l.117.075c.685.392 1.563.138 1.896-.586l4.711-9.694 1.056-.275c.509-.137.979-.527 1.291-1.055l.292-.528 2.211-4.05c.157-.179.137-.393-.019-.509z"/></g><path fill="#47B475" d="M25.498 239.378c0-.336-.146-.658-.396-.881a1.189 1.189 0 0 0-.933-.282c-2.158.269-4.22-.453-5.747-1.919a1.151 1.151 0 0 0-.801-.322 1.134 1.134 0 0 0-.803.321c-1.526 1.465-3.593 2.188-5.747 1.92a1.2 1.2 0 0 0-.934.282 1.177 1.177 0 0 0-.396.883l.006 7.151a6.12 6.12 0 0 0 3.479 5.505l4.237 2.017a.387.387 0 0 0 .339 0l4.229-2.014a6.128 6.128 0 0 0 3.476-5.504l-.009-7.157zm-4.212 6.706l-3.38 3.381a.402.402 0 0 1-.278.116.4.4 0 0 1-.28-.116l-3.381-3.381a2.553 2.553 0 0 1-.753-1.813c0-.688.27-1.334.753-1.816.5-.501 1.157-.75 1.813-.75.657 0 1.314.249 1.815.75l.028.027.028-.027a2.573 2.573 0 0 1 3.633 0c.486.482.753 1.13.753 1.816a2.539 2.539 0 0 1-.751 1.813z"/><g fill="#47B475"><path d="M15.674 268.907c.295.146.463.336.778.357.674.063.632-.717 1.347-.885.591-.146.905.337 1.644.273.758-.041 1.474-.609 1.304-1.157-.251-.841-2.757-2.104-3.872-1.474-.778.441-.294 1.474-1.137 1.873-.843.379-1.642-.463-2.526-.084-.903.4-1.031 1.769-.757 2 .378.38 1.683-1.661 3.219-.903zM21.504 277.306v2.59l-3.725-2.59v2.59l-3.349-2.315-.735-7.136h-2.273l-1.451 14.039c-.021.232.146.422.357.422h15.116v-4.842l-3.94-2.758z"/></g><path fill="#47B475" d="M15.604 375.852l-.82-.819a1.485 1.485 0 0 0-1.915-.138l-3.786 2.782a1.459 1.459 0 0 0-.16 2.189l5.04 5.04c.638.64 1.663.547 2.211-.159l2.783-3.785c.434-.572.365-1.394-.137-1.917l-.892-.891.821-.821 1.688-.249.252-1.688 1.687-.25.251-1.688 1.688-.251.251-1.688.935-.936v-2.303h-2.303l-7.594 7.572zm-.663 4.675a.285.285 0 0 1 .022.388l-.821 1.049c-.112.137-.318.16-.433.022l-1.826-1.825c-.135-.136-.111-.342.023-.433l1.05-.82c.113-.091.296-.091.387.021l1.598 1.598zM26.662 542.314a.583.583 0 0 0-.326-.521l-3.632-1.671v-4.36a.58.58 0 0 0-.326-.519l-3.977-1.844a.528.528 0 0 0-.48 0l-3.994 1.844a.567.567 0 0 0-.328.519v4.344l-3.63 1.688a.57.57 0 0 0-.327.521v4.743a.58.58 0 0 0 .327.52l3.978 1.844c.075.039.153.06.249.06a.58.58 0 0 0 .249-.06l3.706-1.708 3.709 1.708c.075.039.151.06.249.06a.587.587 0 0 0 .249-.06l3.977-1.844a.569.569 0 0 0 .327-.52v-4.744zm-11.891 2.189l2.805-1.267v3.477L14.771 548v-3.497zm3.958-6.549l2.823-1.288v3.477l-2.823 1.308v-3.497zm3.38 5.551l-2.555-1.172 2.611-1.21 2.556 1.189-2.612 1.193zm-3.957-8.952l2.593 1.211-2.593 1.19-2.595-1.19 2.595-1.211zm-4.015 6.57l2.613 1.21-2.556 1.173-2.594-1.189 2.537-1.194zM22.688 548v-3.497l2.822-1.287v3.479L22.688 548z"/></svg>